<svg xmlns="http://www.w3.org/2000/svg" viewBox="0 0 2551 1265" fill="currentColor" style="clip-rule:evenodd;stroke-linejoin:round;stroke-miterlimit:2;">
  <g transform="matrix(1,0,0,1,-12417.9,-107.872)">
    <g id="CINO-FILM-AND-TV" transform="matrix(0.664146,0,0,0.329369,12417.9,107.872)">
      <rect x="0" y="0" width="3840" height="3840" fill="none"/>
      <g transform="matrix(-1.20648,5.53177e-16,-7.62196e-17,-1.4999,3084.23,4350.11)">
        <path d="M1540.78,505.146L1540.78,2797.56C1540.78,2843.34 1517.86,2880.52 1489.63,2880.52L1387.34,2880.52C1359.11,2880.52 1336.19,2843.34 1336.19,2797.56L1336.19,505.146C1336.19,459.359 1359.11,422.186 1387.34,422.186L1489.63,422.186C1517.86,422.186 1540.78,459.359 1540.78,505.146Z"/>
      </g>
      <g transform="matrix(-4.3632,1.86871e-15,2.32895e-16,-1.4999,6758.96,4350.11)">
        <path d="M1336.19,677.825L1336.19,493.415C1336.19,447.628 1342.53,410.455 1350.33,410.455L1526.64,410.455C1534.44,410.455 1540.78,447.628 1540.78,493.415L1540.78,2797.56C1540.78,2843.34 1534.44,2880.52 1526.64,2880.52L1350.33,2880.52C1342.53,2880.52 1336.19,2843.34 1336.19,2797.56L1336.19,2613.14C1336.19,2568.61 1342.18,2532.23 1349.69,2530.27C1349.69,2530.27 1417.04,2529.51 1436.35,2529.51C1476.88,2529.51 1478.12,1653.87 1478.11,1645.49C1478.12,1637.1 1476.88,761.465 1436.35,761.465C1417.04,761.465 1349.92,760.709 1349.72,760.707C1342.2,758.808 1336.19,722.398 1336.19,677.825Z"/>
      </g>
      <g transform="matrix(-4.3632,1.86871e-15,2.32895e-16,-1.4999,9626.81,4350.11)">
        <path d="M1540.78,505.146L1540.78,2797.56C1540.78,2843.34 1534.44,2880.52 1526.64,2880.52L1350.33,2880.52C1342.53,2880.52 1336.19,2843.34 1336.19,2797.56L1336.19,505.146C1336.19,459.359 1342.53,422.186 1350.33,422.186L1526.64,422.186C1534.44,422.186 1540.78,459.359 1540.78,505.146ZM1436.35,2529.51C1459.41,2529.51 1478.12,2144.71 1478.12,1670.74C1478.12,1196.77 1459.41,811.966 1436.35,811.966C1413.3,811.966 1394.58,1196.77 1394.58,1670.74C1394.58,2144.71 1413.3,2529.51 1436.35,2529.51Z"/>
      </g>
      <g transform="matrix(0.810106,-5.89883e-16,5.01496e-16,1.7235,11.6035,-1467.37)">
        <path d="M2899.87,2935.84C2882.79,2705.26 2473.5,1396.13 2473.5,1396.13L2473.5,2935.84C2473.5,2975.68 2439.37,3008.04 2397.32,3008.04L2244.98,3008.04C2202.93,3008.04 2168.8,2975.68 2168.8,2935.84L2168.8,940.844C2168.8,900.997 2202.93,868.647 2244.98,868.647L2397.32,868.647C2425.41,868.647 2552.91,868.582 2552.91,868.582C2602.11,873.069 2646.29,891.534 2657.17,930.022L2899.87,1788.51L2899.87,940.844C2899.87,900.997 2934,868.647 2976.04,868.647L3128.39,868.647C3170.43,868.647 3204.56,900.997 3204.56,940.844L3204.56,2935.84C3204.56,2975.68 3170.43,3008.04 3128.39,3008.04L2976.04,3008.04C2934,3008.04 2899.87,2975.68 2899.87,2935.84C2899.87,2935.84 2913.59,3121.1 2899.87,2935.84Z"/>
      </g>
    </g>
  </g>
</svg>
